<svg width="176" height="135" viewBox="0 0 176 135" fill="none" xmlns="http://www.w3.org/2000/svg">
<rect width="176" height="135" fill="#0837AD"/>
<circle cx="85" cy="56" r="22" fill="#EFF1F7"/>
<circle cx="107" cy="34" r="6" fill="#EFF1F7"/>
<path d="M67.71 101.71C67.11 102.19 66.29 102.6 65.25 102.94C64.23 103.26 63.14 103.42 61.98 103.42C59.56 103.42 57.79 102.72 56.67 101.32C55.55 99.9 54.99 97.96 54.99 95.5C54.99 92.86 55.62 90.88 56.88 89.56C58.14 88.24 59.91 87.58 62.19 87.58C62.95 87.58 63.69 87.68 64.41 87.88C65.13 88.08 65.77 88.41 66.33 88.87C66.89 89.33 67.34 89.95 67.68 90.73C68.02 91.51 68.19 92.48 68.19 93.64C68.19 94.06 68.16 94.51 68.1 94.99C68.06 95.47 67.99 95.97 67.89 96.49H58.89C58.95 97.75 59.27 98.7 59.85 99.34C60.45 99.98 61.41 100.3 62.73 100.3C63.55 100.3 64.28 100.18 64.92 99.94C65.58 99.68 66.08 99.42 66.42 99.16L67.71 101.71ZM62.13 90.7C61.11 90.7 60.35 91.01 59.85 91.63C59.37 92.23 59.08 93.04 58.98 94.06H64.56C64.64 92.98 64.47 92.15 64.05 91.57C63.65 90.99 63.01 90.7 62.13 90.7ZM83.4879 103C83.4879 105.18 82.8979 106.78 81.7179 107.8C80.5379 108.84 78.8879 109.36 76.7679 109.36C75.3279 109.36 74.1879 109.26 73.3479 109.06C72.5279 108.86 71.9079 108.65 71.4879 108.43L72.2979 105.34C72.7579 105.52 73.2879 105.7 73.8879 105.88C74.5079 106.06 75.2679 106.15 76.1679 106.15C77.5279 106.15 78.4479 105.85 78.9279 105.25C79.4279 104.67 79.6779 103.85 79.6779 102.79V101.83H79.5579C78.8579 102.77 77.6179 103.24 75.8379 103.24C73.8979 103.24 72.4479 102.64 71.4879 101.44C70.5479 100.24 70.0779 98.36 70.0779 95.8C70.0779 93.12 70.7179 91.09 71.9979 89.71C73.2779 88.33 75.1379 87.64 77.5779 87.64C78.8579 87.64 79.9979 87.73 80.9979 87.91C82.0179 88.09 82.8479 88.3 83.4879 88.54V103ZM76.8879 100.12C77.6479 100.12 78.2279 99.95 78.6279 99.61C79.0479 99.27 79.3679 98.76 79.5879 98.08V91.33C78.9679 91.07 78.1979 90.94 77.2779 90.94C76.2779 90.94 75.4979 91.32 74.9379 92.08C74.3779 92.82 74.0979 94.01 74.0979 95.65C74.0979 97.11 74.3379 98.22 74.8179 98.98C75.2979 99.74 75.9879 100.12 76.8879 100.12ZM86.1619 95.5C86.1619 92.96 86.7819 91.01 88.0219 89.65C89.2619 88.27 91.0019 87.58 93.2419 87.58C94.4419 87.58 95.4819 87.77 96.3619 88.15C97.2419 88.53 97.9719 89.07 98.5519 89.77C99.1319 90.45 99.5619 91.28 99.8419 92.26C100.142 93.24 100.292 94.32 100.292 95.5C100.292 98.04 99.6719 100 98.4319 101.38C97.2119 102.74 95.4819 103.42 93.2419 103.42C92.0419 103.42 91.0019 103.23 90.1219 102.85C89.2419 102.47 88.5019 101.94 87.9019 101.26C87.3219 100.56 86.8819 99.72 86.5819 98.74C86.3019 97.76 86.1619 96.68 86.1619 95.5ZM90.1819 95.5C90.1819 96.16 90.2419 96.77 90.3619 97.33C90.4819 97.89 90.6619 98.38 90.9019 98.8C91.1419 99.22 91.4519 99.55 91.8319 99.79C92.2319 100.01 92.7019 100.12 93.2419 100.12C94.2619 100.12 95.0219 99.75 95.5219 99.01C96.0219 98.27 96.2719 97.1 96.2719 95.5C96.2719 94.12 96.0419 93.01 95.5819 92.17C95.1219 91.31 94.3419 90.88 93.2419 90.88C92.2819 90.88 91.5319 91.24 90.9919 91.96C90.4519 92.68 90.1819 93.86 90.1819 95.5ZM112.175 103V94.48C112.175 93.26 111.995 92.38 111.635 91.84C111.295 91.3 110.705 91.03 109.865 91.03C109.125 91.03 108.495 91.25 107.975 91.69C107.475 92.11 107.115 92.64 106.895 93.28V103H102.995V88H106.085L106.535 89.98H106.655C107.115 89.34 107.725 88.78 108.485 88.3C109.245 87.82 110.225 87.58 111.425 87.58C112.165 87.58 112.825 87.68 113.405 87.88C113.985 88.08 114.475 88.41 114.875 88.87C115.275 89.33 115.575 89.96 115.775 90.76C115.975 91.54 116.075 92.51 116.075 93.67V103H112.175Z" fill="#EFF1F7"/>
</svg>
