<svg width="176" height="135" viewBox="0 0 176 135" fill="none" xmlns="http://www.w3.org/2000/svg">
<circle cx="92" cy="56" r="22" fill="#0837AD"/>
<path d="M72 72C72 75.3137 69.3137 78 66 78C62.6863 78 60 75.3137 60 72C60 68.6863 62.6863 66 66 66C69.3137 66 72 68.6863 72 72Z" fill="#0837AD"/>
<path d="M67.71 98.71C67.11 99.19 66.29 99.6 65.25 99.94C64.23 100.26 63.14 100.42 61.98 100.42C59.56 100.42 57.79 99.72 56.67 98.32C55.55 96.9 54.99 94.96 54.99 92.5C54.99 89.86 55.62 87.88 56.88 86.56C58.14 85.24 59.91 84.58 62.19 84.58C62.95 84.58 63.69 84.68 64.41 84.88C65.13 85.08 65.77 85.41 66.33 85.87C66.89 86.33 67.34 86.95 67.68 87.73C68.02 88.51 68.19 89.48 68.19 90.64C68.19 91.06 68.16 91.51 68.1 91.99C68.06 92.47 67.99 92.97 67.89 93.49H58.89C58.95 94.75 59.27 95.7 59.85 96.34C60.45 96.98 61.41 97.3 62.73 97.3C63.55 97.3 64.28 97.18 64.92 96.94C65.58 96.68 66.08 96.42 66.42 96.16L67.71 98.71ZM62.13 87.7C61.11 87.7 60.35 88.01 59.85 88.63C59.37 89.23 59.08 90.04 58.98 91.06H64.56C64.64 89.98 64.47 89.15 64.05 88.57C63.65 87.99 63.01 87.7 62.13 87.7ZM83.4879 100C83.4879 102.18 82.8979 103.78 81.7179 104.8C80.5379 105.84 78.8879 106.36 76.7679 106.36C75.3279 106.36 74.1879 106.26 73.3479 106.06C72.5279 105.86 71.9079 105.65 71.4879 105.43L72.2979 102.34C72.7579 102.52 73.2879 102.7 73.8879 102.88C74.5079 103.06 75.2679 103.15 76.1679 103.15C77.5279 103.15 78.4479 102.85 78.9279 102.25C79.4279 101.67 79.6779 100.85 79.6779 99.79V98.83H79.5579C78.8579 99.77 77.6179 100.24 75.8379 100.24C73.8979 100.24 72.4479 99.64 71.4879 98.44C70.5479 97.24 70.0779 95.36 70.0779 92.8C70.0779 90.12 70.7179 88.09 71.9979 86.71C73.2779 85.33 75.1379 84.64 77.5779 84.64C78.8579 84.64 79.9979 84.73 80.9979 84.91C82.0179 85.09 82.8479 85.3 83.4879 85.54V100ZM76.8879 97.12C77.6479 97.12 78.2279 96.95 78.6279 96.61C79.0479 96.27 79.3679 95.76 79.5879 95.08V88.33C78.9679 88.07 78.1979 87.94 77.2779 87.94C76.2779 87.94 75.4979 88.32 74.9379 89.08C74.3779 89.82 74.0979 91.01 74.0979 92.65C74.0979 94.11 74.3379 95.22 74.8179 95.98C75.2979 96.74 75.9879 97.12 76.8879 97.12ZM86.1619 92.5C86.1619 89.96 86.7819 88.01 88.0219 86.65C89.2619 85.27 91.0019 84.58 93.2419 84.58C94.4419 84.58 95.4819 84.77 96.3619 85.15C97.2419 85.53 97.9719 86.07 98.5519 86.77C99.1319 87.45 99.5619 88.28 99.8419 89.26C100.142 90.24 100.292 91.32 100.292 92.5C100.292 95.04 99.6719 97 98.4319 98.38C97.2119 99.74 95.4819 100.42 93.2419 100.42C92.0419 100.42 91.0019 100.23 90.1219 99.85C89.2419 99.47 88.5019 98.94 87.9019 98.26C87.3219 97.56 86.8819 96.72 86.5819 95.74C86.3019 94.76 86.1619 93.68 86.1619 92.5ZM90.1819 92.5C90.1819 93.16 90.2419 93.77 90.3619 94.33C90.4819 94.89 90.6619 95.38 90.9019 95.8C91.1419 96.22 91.4519 96.55 91.8319 96.79C92.2319 97.01 92.7019 97.12 93.2419 97.12C94.2619 97.12 95.0219 96.75 95.5219 96.01C96.0219 95.27 96.2719 94.1 96.2719 92.5C96.2719 91.12 96.0419 90.01 95.5819 89.17C95.1219 88.31 94.3419 87.88 93.2419 87.88C92.2819 87.88 91.5319 88.24 90.9919 88.96C90.4519 89.68 90.1819 90.86 90.1819 92.5ZM112.175 100V91.48C112.175 90.26 111.995 89.38 111.635 88.84C111.295 88.3 110.705 88.03 109.865 88.03C109.125 88.03 108.495 88.25 107.975 88.69C107.475 89.11 107.115 89.64 106.895 90.28V100H102.995V85H106.085L106.535 86.98H106.655C107.115 86.34 107.725 85.78 108.485 85.3C109.245 84.82 110.225 84.58 111.425 84.58C112.165 84.58 112.825 84.68 113.405 84.88C113.985 85.08 114.475 85.41 114.875 85.87C115.275 86.33 115.575 86.96 115.775 87.76C115.975 88.54 116.075 89.51 116.075 90.67V100H112.175Z" fill="#0837AD"/>
</svg>
